<svg xmlns:xlink="http://www.w3.org/1999/xlink" xmlns="http://www.w3.org/2000/svg" class="u-mr--small icon icon--align icon-employers" width="14"  height="17" ><defs><symbol viewBox="0 0 14 17" id="employers"><path fill-rule="evenodd" d="M1 2h12v15H1V2zm5 12.256A.25.25 0 0 1 6.245 14h1.51a.25.25 0 0 1 .245.256V17H6v-2.744zm-3-10A.25.25 0 0 1 3.245 4h1.51A.25.25 0 0 1 5 4.256v2.488A.25.25 0 0 1 4.755 7h-1.51A.25.25 0 0 1 3 6.744V4.256zm3 0A.25.25 0 0 1 6.245 4h1.51A.25.25 0 0 1 8 4.256v2.488A.25.25 0 0 1 7.755 7h-1.51A.25.25 0 0 1 6 6.744V4.256zm3 0A.25.25 0 0 1 9.245 4h1.51a.25.25 0 0 1 .245.256v2.488a.25.25 0 0 1-.245.256h-1.51A.25.25 0 0 1 9 6.744V4.256zm-6 5A.25.25 0 0 1 3.245 9h1.51A.25.25 0 0 1 5 9.256v2.488a.25.25 0 0 1-.245.256h-1.51A.25.25 0 0 1 3 11.744V9.256zm3 0A.25.25 0 0 1 6.245 9h1.51A.25.25 0 0 1 8 9.256v2.488a.25.25 0 0 1-.245.256h-1.51A.25.25 0 0 1 6 11.744V9.256zm3 0A.25.25 0 0 1 9.245 9h1.51a.25.25 0 0 1 .245.256v2.488a.25.25 0 0 1-.245.256h-1.51A.25.25 0 0 1 9 11.744V9.256zM.379.484A.673.673 0 0 1 .994 0h12.012c.273 0 .548.214.615.484L14 2H0L.379.484z"></path></symbol></defs><use xlink:href="#employers"></use></svg>