<svg xmlns="http://www.w3.org/2000/svg" xmlns:xlink="http://www.w3.org/1999/xlink" width="1165" zoomAndPan="magnify" viewBox="0 0 873.75 989.999987" height="1320" preserveAspectRatio="xMidYMid meet" version="1.0"><defs><clipPath id="60a46b4501"><path d="M 1 0.140625 L 872 0.140625 L 872 989.859375 L 1 989.859375 Z M 1 0.140625 " clip-rule="nonzero"/></clipPath></defs><g clip-path="url(#60a46b4501)"><path fill="#adacae" d="M 775.980469 932.863281 L 775.980469 79.273438 L 800.628906 79.273438 L 800.628906 0.140625 L 71.574219 0.140625 L 71.574219 79.273438 L 96.222656 79.273438 L 96.222656 934.160156 L 1.523438 934.160156 L 1.523438 989.941406 L 350.484375 989.941406 L 350.484375 704.546875 L 523.015625 704.546875 L 523.015625 989.941406 L 871.976562 989.941406 L 871.976562 934.160156 L 775.980469 934.160156 Z M 284.324219 621.523438 L 192.21875 621.523438 L 192.21875 529.417969 L 284.324219 529.417969 Z M 284.324219 423.042969 L 192.21875 423.042969 L 192.21875 330.9375 L 284.324219 330.9375 Z M 284.324219 224.566406 L 192.21875 224.566406 L 192.21875 131.164062 L 284.324219 131.164062 Z M 482.800781 621.523438 L 390.699219 621.523438 L 390.699219 529.417969 L 482.800781 529.417969 C 482.800781 529.417969 482.800781 621.523438 482.800781 621.523438 Z M 482.800781 423.042969 L 390.699219 423.042969 L 390.699219 330.9375 L 482.800781 330.9375 C 482.800781 330.9375 482.800781 423.042969 482.800781 423.042969 Z M 482.800781 224.566406 L 390.699219 224.566406 L 390.699219 131.164062 L 482.800781 131.164062 C 482.800781 131.164062 482.800781 224.566406 482.800781 224.566406 Z M 681.28125 621.523438 L 587.878906 621.523438 L 587.878906 529.417969 L 681.28125 529.417969 Z M 681.28125 423.042969 L 587.878906 423.042969 L 587.878906 330.9375 L 681.28125 330.9375 Z M 681.28125 224.566406 L 587.878906 224.566406 L 587.878906 131.164062 L 681.28125 131.164062 Z M 681.28125 224.566406 " fill-opacity="1" fill-rule="nonzero"/></g></svg>